PathFileType	4	(X/Y/Z)	D:\TRACE\v60_Jaco2_6-2-23\BothDRS_Motion2_6-v60.trc
DataRate	CameraRate	NumFrames	NumMarkers	Units	OrigDataRate	OrigDataStartFrame	OrigNumFrames
100.00	100.00	      24	9	mm	100.00	2813	      7500
Frame#	Time	front left toe			Front right toe			aft left toe			aft right toe			Arm			FL body			FR body			AL Body			AR Body			
		X1	Y1	Z1	X2	Y2	Z2	X3	Y3	Z3	X4	Y4	Z4	X5	Y5	Z5	X6	Y6	Z6	X7	Y7	Z7	X8	Y8	Z8	X9	Y9	Z9	

2813	28.120	-256.61517	80.94306	-303.17316	143.76462	-16.04048	-386.63309	-146.68791	33.00058	287.78662	181.58626	132.59312	276.92511	-92.21963	1085.17017	-822.18756	-163.05498	552.32581	-483.01694	-4.18199	553.70074	-505.83463	-34.75010	592.04382	453.11005	121.57236	587.35291	433.50607	
2814	28.130	-256.89102	91.70766	-308.20081	144.40327	-16.43397	-386.72916	-146.11859	33.12492	287.55185	182.03197	143.41896	271.02258	-92.61971	1082.67236	-824.14923	-163.92241	550.82208	-484.40366	-4.44994	552.08270	-506.73938	-35.78834	592.62714	452.03912	121.85198	588.32727	433.31369	
2815	28.140	-257.31342	101.01031	-312.66470	144.73965	-16.73387	-386.70206	-145.79590	33.15978	287.61859	184.16814	154.51039	266.11258	-92.53342	1080.78760	-826.34711	-164.23529	548.88849	-485.10312	-4.69127	550.76965	-507.43677	-36.19810	593.39478	451.03583	120.10271	589.14954	431.48978	
2816	28.150	-258.50232	108.97955	-317.14685	144.87247	-17.01154	-386.92023	-145.39748	33.39077	287.42108	183.59334	163.68057	261.10736	-93.29163	1079.10413	-828.45410	-164.51959	547.59137	-486.04144	-5.86857	549.36987	-508.21021	-37.56042	593.94958	449.95755	119.27350	590.32880	431.07104	
2817	28.160	-260.21365	112.78429	-320.15964	145.38341	-17.26547	-386.91638	-144.96819	33.60118	287.26437	182.66708	168.87375	257.08118	-94.40699	1077.08179	-830.00970	-165.09222	545.86353	-487.19583	-5.60877	548.14825	-509.40942	-38.54794	594.56525	448.96445	118.31557	590.97742	429.54971	
2818	28.170	-262.28845	115.07984	-323.01730	145.75070	-17.59607	-386.90118	-144.59880	33.59505	287.01556	181.63071	171.02954	253.54472	-95.63647	1075.24744	-831.92419	-165.61812	544.52667	-488.47842	-6.41213	546.69049	-509.81931	-39.41386	595.27991	447.96365	116.78466	591.67798	428.76141	
2819	28.180	-264.44843	114.25196	-326.03244	146.58679	-17.57458	-386.83566	-144.12173	33.36838	286.78409	180.73460	170.02365	250.22981	-97.24486	1073.12476	-833.77539	-164.92931	542.99866	-489.15399	-5.90020	545.58502	-511.05090	-40.90284	595.62341	447.17072	115.84291	592.12830	428.02591	
2820	28.190	-266.82495	110.40173	-328.80072	146.98343	-17.66900	-386.86469	-143.78778	33.33650	286.74893	179.43597	166.30705	246.68182	-98.48857	1071.08325	-835.59338	-165.52794	541.95538	-490.22455	-6.29191	544.73151	-511.69916	-42.31522	595.90686	446.20404	114.15505	592.75299	427.20309	
2821	28.200	-268.43665	105.44666	-332.20947	147.69644	-17.83517	-386.93896	-143.35150	33.39300	286.68231	178.04005	161.38155	243.20250	-100.02967	1069.21350	-837.12531	-165.80101	540.75720	-491.09271	-7.24092	543.83789	-512.27411	-43.82376	596.57983	445.37103	113.60626	593.61609	426.86734	
2822	28.210	-269.66409	99.69824	-336.20432	149.44365	-17.82309	-386.64978	-142.74319	33.57599	286.44141	176.59758	155.76024	239.49069	-101.18726	1067.83191	-838.90729	-166.62936	540.09033	-492.18259	-7.18807	543.10516	-513.33459	-45.12568	597.09430	444.36966	111.43995	594.12274	425.80975	
2823	28.220	-270.71768	92.55441	-340.20688	149.53987	-18.05765	-386.58542	-142.22931	33.58488	286.34106	172.92915	148.29028	235.32362	-101.93330	1066.43689	-840.69299	-167.15213	539.11157	-493.05246	-7.61495	542.20691	-514.49225	-46.97312	597.48975	443.26227	109.66261	594.88147	424.98325	
2824	28.230	-272.37561	84.66469	-344.73221	149.63385	-18.24358	-386.67773	-141.45737	33.28292	286.22095	170.00359	139.74797	231.64259	-102.08836	1065.26135	-842.15393	-168.03287	538.00641	-494.17422	-8.23258	541.41718	-515.08612	-48.51226	597.97864	442.33029	108.31054	595.60095	424.57407	
2825	28.240	-274.21805	75.89878	-348.72522	149.89174	-18.42076	-386.75262	-141.09613	33.16913	286.22598	167.43733	130.01410	228.17734	-102.54403	1064.17017	-843.79950	-168.91322	536.99878	-495.20963	-8.64820	540.75195	-516.29364	-50.27615	598.11993	441.54013	106.37336	595.82800	423.29364	
2826	28.250	-276.73569	66.43608	-353.14267	150.23068	-18.49674	-386.85916	-140.44385	32.89871	286.22235	165.35464	118.87151	224.54555	-103.05175	1063.36401	-844.93237	-168.68124	535.88275	-495.89130	-10.11504	539.99017	-516.38202	-52.31075	598.17560	440.49731	104.22327	596.50714	423.01590	
2827	28.260	-279.11072	56.97509	-357.19479	150.77736	-18.43212	-387.00342	-139.97087	32.92049	285.91013	162.98311	107.05894	221.08914	-103.79330	1062.39917	-846.60852	-169.58708	535.74359	-497.16666	-10.80108	539.68970	-517.50867	-54.79218	598.38397	439.41544	102.01786	596.46442	421.81784	
2828	28.270	-282.04242	47.75046	-361.65649	151.48997	-18.39014	-387.00568	-138.98802	32.94114	285.75229	158.77370	94.02603	217.59853	-104.63698	1061.88916	-848.36823	-170.52592	535.23688	-498.61728	-10.95052	539.54688	-518.75879	-57.30420	598.70667	438.31534	99.78101	596.73688	421.11450	
2829	28.280	-284.11026	38.57339	-365.60861	152.13577	-18.23487	-386.94302	-138.64072	32.85635	285.61993	155.80621	83.11536	215.45847	-105.37030	1061.17371	-850.01868	-171.30063	535.05219	-500.10571	-11.52187	539.21094	-519.86304	-60.11323	598.77576	437.35144	97.01168	597.28302	420.55447	
2830	28.290	-285.92850	29.51838	-368.87064	152.54318	-18.22832	-387.01843	-137.80334	32.34885	285.56134	152.08223	73.18813	214.21771	-105.98635	1060.52161	-851.43561	-171.80400	534.61157	-501.66818	-11.95338	538.96967	-520.62543	-62.94904	598.65131	436.05893	94.44334	597.09454	419.54901	
2831	28.300	-287.54471	20.38567	-371.59216	153.23279	-17.97128	-386.88922	-136.99071	32.04342	285.57025	146.59308	63.10720	213.74400	-106.78280	1060.24475	-853.04413	-172.24115	534.07697	-502.98355	-12.69213	538.49878	-521.78339	-65.83019	598.87323	434.93130	88.82813	596.16327	417.21106	
2832	28.310	-288.68317	11.84802	-373.35123	153.67853	-17.76997	-386.78809	-136.31790	31.98259	285.44009	140.78651	54.17974	214.13908	-106.59072	1060.21777	-854.56567	-172.28004	533.43243	-504.37213	-13.08802	538.39575	-522.72430	-69.39144	598.98987	433.56693	84.19781	596.67596	416.42770	
2833	28.320	-289.59698	3.90835	-374.37225	154.36153	-17.57983	-386.68146	-135.82076	31.97023	285.22168	135.44084	46.44452	214.82619	-106.78803	1060.17944	-856.24786	-173.20656	533.56342	-506.11356	-13.78419	538.35388	-524.36572	-72.92474	599.27185	432.15689	84.48312	597.82318	416.84760	
2834	28.330	-290.29501	-3.59758	-374.68161	155.19351	-17.38537	-386.51859	-135.25500	31.78238	285.10208	130.69560	39.75201	216.17059	-106.24915	1060.00049	-858.00604	-174.32704	533.51526	-508.13998	-13.86680	538.15234	-525.35632	-76.84165	599.25232	430.73590	80.71121	597.95630	415.85675	
2835	28.340	-291.11905	-10.73790	-375.48160	156.10654	-17.09311	-386.26651	-134.24431	31.20365	285.22974	127.41957	34.50734	216.29984	-105.74393	1059.59326	-859.87012	-174.21790	532.83563	-509.99985	-14.53323	538.00085	-526.64423	-81.57307	599.05524	429.22690	76.21970	597.95209	414.97714	
2836	28.350	-292.00681	-15.44534	-377.62347	156.88483	-16.90063	-386.01248	-133.57323	30.69418	285.03979	128.33578	35.57697	213.43044	-104.76442	1059.03284	-861.73450	-174.33076	532.19324	-511.86481	-14.74860	537.62506	-527.85315	-86.46867	598.77765	427.67957	71.30733	598.16125	414.26053	
